# xmcd
#
# Track frame offsets:
#	150
#	13670
#	33370
#	47200
#	62075
#	78065
#	90597
#	104372
#	116895
#	128825
#	142360
#	157290
#	171692
#	188967
#	203065
#	221295
#	235265
#	249950
#	259955
#	273035
#	286735
#	300240
#	314619
#	328044
#	339315
#
# Disc length: 4682 seconds
#
# Revision: 0
# Processed by: cddbd v1.5.1PL0 Copyright (c) Steve Scherf et al.
# Submitted via: dBpowerAMP V4.0
#
DISCID=6f124819
DTITLE=Various Artist - Mega Italie cd 1
DYEAR=1900
DGENRE=Acid Punk
TTITLE0=Toto Cutugno - L´italiano
TTITLE1=Drupi - Vado Viva ´95
TTITLE2=Bobby Solo - Una Lacrima Sul Viso
TTITLE3=Domenico Modugno - Piange...Il Telefono
TTITLE4=Flavio - Caruso
TTITLE5=Giorgo Gaber - Parlami D´amore Mariu
TTITLE6=Irene Fargo - Come Una Turandot
TTITLE7=Mina - Le Mille Bolle blu
TTITLE8=Patrick Samson - Soli Si Muore
TTITLE9=Nicola Di Bari - La Piu Bella Del Mondo
TTITLE10=Pino D´angio - Non Ti Ricordi Di Me
TTITLE11=Elio Gandolfi - La vita
TTITLE12=Ivan Graziani - Maledette Maledette Malelingue
TTITLE13=Lighea - Rivoglio La Mia Vita
TTITLE14=Luca Sepe - Un Po Di Te
TTITLE15=I Santo California - Tornero
TTITLE16=Meccano - Una Stella Se Vuoi
TTITLE17=Adriano Celentano - 24 Mila Baci
TTITLE18=Gepy and Gepy - Angelo Blu
TTITLE19=Angelo Fabiani - Arrivederci
TTITLE20=Pino Donaggio - L´ultimo Romantico
TTITLE21=Clio - Non Siamo Angeli
TTITLE22=Flavia Fortunato - Canto Per Te
TTITLE23=Sandro Giacobbe - Le Vorrei
TTITLE24=Marino Marini - Come Prima
EXTD=
EXTT0=
EXTT1=
EXTT2=
EXTT3=
EXTT4=
EXTT5=
EXTT6=
EXTT7=
EXTT8=
EXTT9=
EXTT10=
EXTT11=
EXTT12=
EXTT13=
EXTT14=
EXTT15=
EXTT16=
EXTT17=
EXTT18=
EXTT19=
EXTT20=
EXTT21=
EXTT22=
EXTT23=
EXTT24=
PLAYORDER=
